# Made in Blockbench 4.12.6
mtllib brass_thruster.mtl

o cylinder
v 0.5000000000000002 0.4999999999999999 -2.0
v 0.5 0.4999999999999999 -1.0
v 2.0 1.1213203435596428 -2.0
v 1.9999999999999998 1.1213203435596428 -0.9999999999999996
v 1.1213203435596428 2.0 -2.0
v 1.1213203435596428 2.0 -1.0
v -0.12132034355964183 2.0 -2.0
v -0.12132034355964272 2.0 -1.0
v -1.0 1.1213203435596433 -2.0
v -1.0 1.1213203435596433 -1.0
v -1.0 -0.1213203435596425 -2.0
v -1.0 -0.1213203435596425 -1.0
v -0.12132034355964294 -1.0 -2.0
v -0.12132034355964383 -1.0 -1.0
v 1.1213203435596428 -1.0 -2.0
v 1.1213203435596428 -1.0 -1.0
v 1.9999999999999998 -0.12132034355964383 -2.0
v 1.9999999999999996 -0.12132034355964383 -0.9999999999999996
vt 0.24766904056396233 0.4877291995155171
vt 0.4685677039001345 0.37996437164601726
vt 0.6294604395380765 0.5616795408349069
vt 0.25435882470920956 0.25
vt 0.25435882470920956 0.109375
vt 0.004358824709209563 0.109375
vt 0.004358824709209563 0.25
vt 0.004358824709209563 0.19931745375665644
vt 0.0003317796552423924 0.20272090140517096
vt 0.004358824709209563 0.2109375
vt 0.25308676314179446 0.6390497655603345
vt 0.25308676314179446 0.48796054831270963
vt 0.6335176668408624 0.5635051569365221
vt 0.25435882470920956 0.25
vt 0.25435882470920956 0.109375
vt 0.004358824709209563 0.109375
vt 0.004358824709209563 0.25
vt 0.25526158035936813 0.20204392110849934
vt 0.25526158035936813 0.2109375
vt 0.25 0.20649071055424972
vt 0.4727251756121025 0.748416105165247
vt 0.2479374704376254 0.6425157116693128
vt 0.6269789135959383 0.565382587559977
vt 0.25435882470920956 0.25
vt 0.25435882470920956 0.109375
vt 0.004358824709209563 0.109375
vt 0.004358824709209563 0.25
vt 0.25569509140308494 0.20272087160211705
vt 0.2540270304472167 0.2109375
vt 0.25 0.20272087160211705
vt 0.7862004397829527 0.743539044269675
vt 0.47104196838605206 0.743539044269675
vt 0.6286212040845024 0.5611577577951903
vt 0.25435882470920956 0.25
vt 0.25435882470920956 0.109375
vt 0.004358824709209563 0.109375
vt 0.004358824709209563 0.25
vt 0 0.2109375
vt 0.004358824709209563 0.2109375
vt 0.0021794123546047817 0.20020197307662047
vt 1.015625 0.6374027019518771
vt 0.7966965712729983 0.7460876651832966
vt 0.632501900902738 0.5650525914759739
vt 0.25435882470920956 0.25
vt 0.25435882470920956 0.109375
vt 0.004358824709209563 0.109375
vt 0.004358824709209563 0.25
vt 0.0003317796552423369 0.2109375
vt 0.004358824709209563 0.20753405235148548
vt 0.0003317796552423369 0.19931745375665644
vt 1.0099857486263988 0.48796054831270985
vt 1.0099857486263988 0.6390497655603348
vt 0.6295548449273305 0.5635051569365224
vt 0.25435882470920956 0.25
vt 0.25435882470920956 0.109375
vt 0.004358824709209563 0.109375
vt 0.004358824709209563 0.25
vt 0.25 0.2109375
vt 0.25 0.20204392110849934
vt 0.25526158035936813 0.20649071055424972
vt 0.7878150308759109 0.3833881089217326
vt 1.0087132865401105 0.4911531288504196
vt 0.6269216078143591 0.5651031382228466
vt 0.25435882470920956 0.25
vt 0.25435882470920956 0.109375
vt 0.004358824709209563 0.109375
vt 0.004358824709209563 0.25
vt 0.25 0.2109375
vt 0.25166806095586824 0.20272087160211705
vt 0.255695091403085 0.2109375
vt 0.47104196838605206 0.3806762763881484
vt 0.7862004397829527 0.3806762763881484
vt 0.6286212040845024 0.5630575628626329
vt 0.25435882470920956 0.25
vt 0.25435882470920956 0.109375
vt 0.004358824709209563 0.109375
vt 0.004358824709209563 0.25
vt 0.004358824709209563 0.20020197307662047
vt 0 0.20020197307662047
vt 0.0021794123546047817 0.2109375
vn 2.220446049250313e-16 -1.359631073446891e-32 -1.0
vn 0.7071067811865477 0.7071067811865475 1.5700924586837754e-16
vn -2.220446049250313e-16 1.359631073446891e-32 1.0
vn 2.220446049250313e-16 -1.359631073446891e-32 -1.0
vn 6.123233995736766e-17 1.0 0.0
vn -2.220446049250313e-16 1.359631073446891e-32 1.0
vn 2.220446049250313e-16 -1.359631073446891e-32 -1.0
vn -0.7071067811865475 0.7071067811865476 -1.570092458683775e-16
vn -2.220446049250313e-16 1.359631073446891e-32 1.0
vn 2.220446049250313e-16 -1.359631073446891e-32 -1.0
vn -1.0 2.3992003884462974e-16 -2.220446049250313e-16
vn -2.220446049250313e-16 1.359631073446891e-32 1.0
vn 2.220446049250313e-16 -1.359631073446891e-32 -1.0
vn -0.7071067811865477 -0.7071067811865474 -1.5700924586837754e-16
vn -2.220446049250313e-16 1.359631073446891e-32 1.0
vn 2.220446049250313e-16 -1.359631073446891e-32 -1.0
vn -4.186077377318915e-16 -1.0 -7.935327900877006e-32
vn -2.220446049250313e-16 1.359631073446891e-32 1.0
vn 2.220446049250313e-16 -1.359631073446891e-32 -1.0
vn 0.7071067811865474 -0.7071067811865477 1.5700924586837747e-16
vn -2.220446049250313e-16 1.359631073446891e-32 1.0
vn 2.220446049250313e-16 -1.359631073446891e-32 -1.0
vn 1.0 -2.399200388446296e-16 2.220446049250313e-16
vn -2.220446049250313e-16 1.359631073446891e-32 1.0
usemtl m_0733762f-288a-b25b-31ae-d546bb315e68
f 5/1/1 3/2/1 1/3/1
f 3/4/2 5/5/2 6/6/2 4/7/2
f 4/8/3 6/9/3 2/10/3
f 7/11/4 5/12/4 1/13/4
f 5/14/5 7/15/5 8/16/5 6/17/5
f 6/18/6 8/19/6 2/20/6
f 9/21/7 7/22/7 1/23/7
f 7/24/8 9/25/8 10/26/8 8/27/8
f 8/28/9 10/29/9 2/30/9
f 11/31/10 9/32/10 1/33/10
f 9/34/11 11/35/11 12/36/11 10/37/11
f 10/38/12 12/39/12 2/40/12
f 13/41/13 11/42/13 1/43/13
f 11/44/14 13/45/14 14/46/14 12/47/14
f 12/48/15 14/49/15 2/50/15
f 15/51/16 13/52/16 1/53/16
f 13/54/17 15/55/17 16/56/17 14/57/17
f 14/58/18 16/59/18 2/60/18
f 17/61/19 15/62/19 1/63/19
f 15/64/20 17/65/20 18/66/20 16/67/20
f 16/68/21 18/69/21 2/70/21
f 3/71/22 17/72/22 1/73/22
f 17/74/23 3/75/23 4/76/23 18/77/23
f 18/78/24 4/79/24 2/80/24
o cylinder
v 0.5 0.4999999999999999 -0.75
v 0.5 0.4999999999999999 0.125
v 1.625 0.9659902576697319 -0.7499999999999998
v 1.6249999999999998 0.9659902576697319 0.12500000000000022
v 0.9659902576697321 1.625 -0.75
v 0.9659902576697319 1.625 0.1250000000000001
v 0.03400974233026838 1.625 -0.75
v 0.034009742330268156 1.625 0.12499999999999989
v -0.625 0.9659902576697321 -0.7500000000000002
v -0.625 0.9659902576697321 0.12499999999999978
v -0.625 0.0340097423302681 -0.7500000000000002
v -0.625 0.0340097423302681 0.12499999999999978
v 0.03400974233026738 -0.6249999999999996 -0.75
v 0.034009742330267156 -0.6249999999999996 0.12499999999999989
v 0.9659902576697323 -0.625 -0.75
v 0.9659902576697321 -0.625 0.1250000000000001
v 1.6249999999999998 0.034009742330267156 -0.7499999999999998
v 1.6249999999999996 0.034009742330267156 0.12500000000000022
vt 0.06251016108624963 0.10422551289123394
vt 0.21342397421753212 0.14005734371034062
vt 0.06251016108624963 0.2265625
vt 0.016245858629612385 0.2265625
vt 0.016245858629612385 0.13293002871585435
vt 0.21342397421753212 0.13293002871585435
vt 0.21342397421753212 0.2265625
vt 0 0.2265625
vt 0.0625107084753113 0.14005702994086433
vt 0.21342397421753212 0.2265625
vt 0.05007669381160985 0.11353781908845628
vt 0.21342397421753212 0.11353781908845628
vt 0.13175033401457098 0.2265625
vt 0.016245858629612385 0.2265625
vt 0.016245858629612385 0.13293002871585435
vt 0.21342397421753212 0.13293002871585435
vt 0.21342397421753212 0.2265625
vt 0.05007669381160985 0.11353781908845628
vt 0.21342397421753212 0.11353781908845628
vt 0.13175033401457098 0.2265625
vt 0 0.2265625
vt 0.0625107084753113 0.14005702994086433
vt 0.21342397421753212 0.2265625
vt 0.016245858629612385 0.2265625
vt 0.016245858629612385 0.13293002871585435
vt 0.21342397421753212 0.13293002871585435
vt 0.21342397421753212 0.2265625
vt 0.06251016108624963 0.10422551289123394
vt 0.21342397421753212 0.14005734371034062
vt 0.06251016108624963 0.2265625
vt 0.016245858629612385 0.2265625
vt 0.016245858629612385 0.13293002871585435
vt 0.21342397421753212 0.1797462643579274
vt 0.016245858629612385 0.2265625
vt 0.016245858629612385 0.13293002871585435
vt 0.21342397421753212 0.13293002871585435
vt 0.21342397421753212 0.2265625
vt 0.21342397421753212 0.13293002871585435
vt 0.21342397421753212 0.2265625
vt 0.016245858629612385 0.1797462643579274
vt 0.21342397421753212 0.2265625
vt 0.06251016108624963 0.19073066918089332
vt 0.21342397421753212 0.10422551289123394
vt 0.016245858629612385 0.2265625
vt 0.016245858629612385 0.13293002871585435
vt 0.21342397421753212 0.13293002871585435
vt 0.21342397421753212 0.2265625
vt 0.21342397421753212 0.14005702994086433
vt 0.15091326574222078 0.2265625
vt 0 0.14005702994086433
vt 0.21342397421753212 0.2265625
vt 0.05007669381160985 0.2265625
vt 0.13175033401457098 0.11353781908845628
vt 0.016245858629612385 0.2265625
vt 0.016245858629612385 0.13293002871585435
vt 0.21342397421753212 0.13293002871585435
vt 0.21342397421753212 0.2265625
vt 0.21342397421753212 0.2265625
vt 0.05007669381160985 0.2265625
vt 0.13175033401457098 0.11353781908845628
vt 0.21342397421753212 0.14005702994086433
vt 0.15091326574222078 0.2265625
vt 0 0.14005702994086433
vt 0.016245858629612385 0.2265625
vt 0.016245858629612385 0.13293002871585435
vt 0.21342397421753212 0.13293002871585435
vt 0.21342397421753212 0.2265625
vt 0.21342397421753212 0.2265625
vt 0.06251016108624963 0.19073066918089332
vt 0.21342397421753212 0.10422551289123394
vt 0.19717811558791973 0.13293002871585435
vt 0.19717811558791973 0.2265625
vt 0 0.1797462643579274
vt 0 0.2265625
vt 0 0.13293002871585435
vt 0.19717811558791973 0.13293002871585435
vt 0.19717811558791973 0.2265625
vt 0.016245858629612385 0.2265625
vt 0.016245858629612385 0.13293002871585435
vt 0.21342397421753212 0.1797462643579274
vn 2.220446049250313e-16 -1.359631073446891e-32 -1.0
vn 0.7071067811865477 0.7071067811865474 1.5700924586837754e-16
vn -2.220446049250313e-16 1.359631073446891e-32 1.0
vn 2.220446049250313e-16 -1.359631073446891e-32 -1.0
vn 6.123233995736766e-17 1.0 0.0
vn -2.220446049250313e-16 1.359631073446891e-32 1.0
vn 2.220446049250313e-16 -1.359631073446891e-32 -1.0
vn -0.7071067811865476 0.7071067811865476 -1.5700924586837752e-16
vn -2.220446049250313e-16 1.359631073446891e-32 1.0
vn 2.220446049250313e-16 -1.359631073446891e-32 -1.0
vn -1.0 2.9948260514038378e-16 -2.220446049250313e-16
vn -2.220446049250313e-16 1.359631073446891e-32 1.0
vn 2.220446049250313e-16 -1.359631073446891e-32 -1.0
vn -0.7071067811865477 -0.7071067811865475 -1.5700924586837754e-16
vn -2.220446049250313e-16 1.359631073446891e-32 1.0
vn 2.220446049250313e-16 -1.359631073446891e-32 -1.0
vn -5.377328703233994e-16 -1.0 -1.058043720116934e-31
vn -2.220446049250313e-16 1.359631073446891e-32 1.0
vn 2.220446049250313e-16 -1.359631073446891e-32 -1.0
vn 0.7071067811865475 -0.7071067811865477 1.570092458683775e-16
vn -2.220446049250313e-16 1.359631073446891e-32 1.0
vn 2.220446049250313e-16 -1.359631073446891e-32 -1.0
vn 1.0 -2.9948260514038363e-16 2.220446049250313e-16
vn -2.220446049250313e-16 1.359631073446891e-32 1.0
usemtl m_0733762f-288a-b25b-31ae-d546bb315e68
f 23/81/25 21/82/25 19/83/25
f 21/84/26 23/85/26 24/86/26 22/87/26
f 22/88/27 24/89/27 20/90/27
f 25/91/28 23/92/28 19/93/28
f 23/94/29 25/95/29 26/96/29 24/97/29
f 24/98/30 26/99/30 20/100/30
f 27/101/31 25/102/31 19/103/31
f 25/104/32 27/105/32 28/106/32 26/107/32
f 26/108/33 28/109/33 20/110/33
f 29/111/34 27/112/34 19/113/34
f 27/114/35 29/115/35 30/116/35 28/117/35
f 28/118/36 30/119/36 20/120/36
f 31/121/37 29/122/37 19/123/37
f 29/124/38 31/125/38 32/126/38 30/127/38
f 30/128/39 32/129/39 20/130/39
f 33/131/40 31/132/40 19/133/40
f 31/134/41 33/135/41 34/136/41 32/137/41
f 32/138/42 34/139/42 20/140/42
f 35/141/43 33/142/43 19/143/43
f 33/144/44 35/145/44 36/146/44 34/147/44
f 34/148/45 36/149/45 20/150/45
f 21/151/46 35/152/46 19/153/46
f 35/154/47 21/155/47 22/156/47 36/157/47
f 36/158/48 22/159/48 20/160/48
o cylinder
v 0.5 0.4999999999999999 -1.0
v 0.5 0.4999999999999999 -0.75
v 1.8125 1.0436553006146867 -0.9999999999999998
v 1.8125 1.0436553006146867 -0.7499999999999998
v 1.0436553006146876 1.8125 -1.0
v 1.0436553006146876 1.8125 -0.75
v -0.04365530061468703 1.8125 -1.0
v -0.04365530061468703 1.8125 -0.75
v -0.8125 1.043655300614688 -1.0
v -0.8125 1.043655300614688 -0.7500000000000002
v -0.8125 -0.043655300614687254 -1.0
v -0.8125 -0.043655300614687254 -0.7500000000000002
v -0.04365530061468814 -0.8124999999999998 -1.0
v -0.04365530061468814 -0.8124999999999998 -0.75
v 1.0436553006146876 -0.8125 -1.0
v 1.0436553006146876 -0.8125 -0.75
v 1.8124999999999998 -0.043655300614688364 -0.9999999999999998
v 1.8124999999999998 -0.043655300614688364 -0.7499999999999998
vt 0.009071818849703539 0.25
vt 0.00022535694357074532 0.2484438099530597
vt 0.009071818849703539 0.24468685809908974
vt 0.015625 0.24975207539123412
vt 0.015625 0.14818957539123478
vt 0.0625 0.14818957539123423
vt 0.0625 0.2497520753912339
vt 0.011558434193130337 0.2446729092361828
vt 0.011558434193130337 0.24873942089709755
vt 0 0.24670616506664023
vt 0.009800659983089821 0.2495955629984039
vt 0.00022535694357074532 0.2495955629984039
vt 0.00501300846333029 0.24468685809908974
vt 0.015625 0.24975207539123412
vt 0.015625 0.14818957539123478
vt 0.0625 0.14818957539123423
vt 0.0625 0.2497520753912339
vt 0.009800659983089821 0.2495955629984039
vt 0.00022535694357074532 0.2495955629984039
vt 0.00501300846333029 0.24468685809908974
vt 0.011558434193130337 0.2446729092361828
vt 0.011558434193130337 0.24873942089709755
vt 0 0.24670616506664023
vt 0.015625 0.24975207539123412
vt 0.015625 0.14818957539123478
vt 0.0625 0.14818957539123423
vt 0.0625 0.2497520753912339
vt 0.009071818849703539 0.25
vt 0.00022535694357074532 0.2484438099530597
vt 0.009071818849703539 0.24468685809908974
vt 0.011783799819533064 0.24468685809908974
vt 0.011783799819533064 0.24875335195530401
vt 0.0002253569435707592 0.246720105027197
vt 0.015625 0.24975207539123412
vt 0.015625 0.14818957539123478
vt 0.0625 0.14818957539123423
vt 0.0625 0.2497520753912339
vt 0.00022535694357074532 0.24875335195530413
vt 0.00022535694357074532 0.24468685809908974
vt 0.011783799819533064 0.246720105027197
vt 0.00022535694357074532 0.24468685809908974
vt 0.009071818849703539 0.24624304814603004
vt 0.00022535694357074532 0.25
vt 0.015625 0.24975207539123412
vt 0.015625 0.14818957539123478
vt 0.0625 0.14818957539123423
vt 0.0625 0.2497520753912339
vt 0.0002253569435707592 0.24844382358018746
vt 0.0038896908423580734 0.24468685809908974
vt 0.012736120660927885 0.24844382358018746
vt 0.00022535694357074532 0.24468685809908974
vt 0.009800659983089821 0.24468685809908974
vt 0.00501300846333029 0.2495955629984039
vt 0.015625 0.24975207539123412
vt 0.015625 0.14818957539123478
vt 0.0625 0.14818957539123423
vt 0.0625 0.2497520753912339
vt 0.00022535694357074532 0.24468685809908974
vt 0.009800659983089821 0.24468685809908974
vt 0.00501300846333029 0.2495955629984039
vt 0.011637075585905293 0.2446980548383868
vt 0.011637075585905293 0.24876456649930156
vt 0.00007864139277495574 0.24673131066884424
vt 0.015625 0.24975207539123412
vt 0.015625 0.14818957539123423
vt 0.0625 0.14818957539123423
vt 0.0625 0.2497520753912339
vt 0.00022535694357074532 0.24468685809908974
vt 0.009071818849703539 0.24624304814603004
vt 0.00022535694357074532 0.25
vt 0.00022535694357074532 0.24875335195530413
vt 0.00022535694357074532 0.24468685809908974
vt 0.011783799819533064 0.246720105027197
vt 0.015625 0.2497520753912339
vt 0.015625 0.14818957539123445
vt 0.0625 0.148189575391234
vt 0.0625 0.2497520753912339
vt 0.011783799819533064 0.24468685809908974
vt 0.011783799819533064 0.24875335195530401
vt 0.0002253569435707592 0.246720105027197
vn 2.220446049250313e-16 -1.359631073446891e-32 -1.0
vn 0.7071067811865477 0.7071067811865475 1.5700924586837754e-16
vn -2.220446049250313e-16 1.359631073446891e-32 1.0
vn 2.220446049250313e-16 -1.359631073446891e-32 -1.0
vn 6.123233995736766e-17 1.0 0.0
vn -2.220446049250313e-16 1.359631073446891e-32 1.0
vn 2.220446049250313e-16 -1.359631073446891e-32 -1.0
vn -0.7071067811865475 0.7071067811865476 -1.570092458683775e-16
vn -2.220446049250313e-16 1.359631073446891e-32 1.0
vn 2.220446049250313e-16 -1.359631073446891e-32 -1.0
vn -1.0 2.6544685297138145e-16 -2.220446049250313e-16
vn -2.220446049250313e-16 1.359631073446891e-32 1.0
vn 2.220446049250313e-16 -1.359631073446891e-32 -1.0
vn -0.7071067811865478 -0.7071067811865472 -1.5700924586837757e-16
vn -2.220446049250313e-16 1.359631073446891e-32 1.0
vn 2.220446049250313e-16 -1.359631073446891e-32 -1.0
vn -2.6544685297138125e-16 -1.0 -4.534473086215431e-32
vn -2.220446049250313e-16 1.359631073446891e-32 1.0
vn 2.220446049250313e-16 -1.359631073446891e-32 -1.0
vn 0.7071067811865474 -0.7071067811865477 1.5700924586837747e-16
vn -2.220446049250313e-16 1.359631073446891e-32 1.0
vn 2.220446049250313e-16 -1.359631073446891e-32 -1.0
vn 1.0 -2.654468529713813e-16 2.220446049250313e-16
vn -2.220446049250313e-16 1.359631073446891e-32 1.0
usemtl m_0733762f-288a-b25b-31ae-d546bb315e68
f 41/161/49 39/162/49 37/163/49
f 39/164/50 41/165/50 42/166/50 40/167/50
f 40/168/51 42/169/51 38/170/51
f 43/171/52 41/172/52 37/173/52
f 41/174/53 43/175/53 44/176/53 42/177/53
f 42/178/54 44/179/54 38/180/54
f 45/181/55 43/182/55 37/183/55
f 43/184/56 45/185/56 46/186/56 44/187/56
f 44/188/57 46/189/57 38/190/57
f 47/191/58 45/192/58 37/193/58
f 45/194/59 47/195/59 48/196/59 46/197/59
f 46/198/60 48/199/60 38/200/60
f 49/201/61 47/202/61 37/203/61
f 47/204/62 49/205/62 50/206/62 48/207/62
f 48/208/63 50/209/63 38/210/63
f 51/211/64 49/212/64 37/213/64
f 49/214/65 51/215/65 52/216/65 50/217/65
f 50/218/66 52/219/66 38/220/66
f 53/221/67 51/222/67 37/223/67
f 51/224/68 53/225/68 54/226/68 52/227/68
f 52/228/69 54/229/69 38/230/69
f 39/231/70 53/232/70 37/233/70
f 53/234/71 39/235/71 40/236/71 54/237/71
f 54/238/72 40/239/72 38/240/72
o cube
v 0.0 5.551115123125783e-17 0.875
v 0.0 5.551115123125783e-17 0.0
v 1.0 0.0 0.875
v 1.0 0.0 0.0
v -1.1102230246251565e-16 -1.0 0.0
v -1.1102230246251565e-16 -1.0 0.875
v 0.9999999999999999 -1.0 0.0
v 0.9999999999999999 -1.0 0.875
vt 0 0.625
vt 0.25 0.625
vt 0.25 0.5
vt 0 0.5
vt 0 0.625
vt 0.21875 0.625
vt 0.21875 0.5
vt 0 0.5
vt 0 0.625
vt 0.25 0.625
vt 0.25 0.5
vt 0 0.5
vt 0.015625 0.625
vt 0.234375 0.625
vt 0.234375 0.5
vt 0.015625 0.5
vt 0 0.625
vt 0.25 0.625
vt 0.25 0.515625
vt 0 0.515625
vt 0 0.625
vt 0.25 0.625
vt 0.25 0.515625
vt 0 0.515625
vn 0.0 0.0 -1.0
vn 6.123233995736766e-17 1.0 0.0
vn 0.0 0.0 1.0
vn -6.123233995736766e-17 -1.0 0.0
vn -1.0 6.123233995736766e-17 0.0
vn 1.0 -6.123233995736766e-17 0.0
usemtl m_0733762f-288a-b25b-31ae-d546bb315e68
f 58/244/73 61/243/73 59/242/73 56/241/73
f 57/248/74 58/247/74 56/246/74 55/245/74
f 62/252/75 57/251/75 55/250/75 60/249/75
f 61/256/76 62/255/76 60/254/76 59/253/76
f 60/260/77 55/259/77 56/258/77 59/257/77
f 61/264/78 58/263/78 57/262/78 62/261/78
o cube
v 0.1250000000000001 1.875 1.0
v 0.1250000000000001 1.875 0.875
v 0.8750000000000001 1.875 1.0
v 0.8750000000000001 1.875 0.875
v 0.12500000000000006 1.125 0.875
v 0.12500000000000006 1.125 1.0
v 0.875 1.125 0.875
v 0.875 1.125 1.0
vt 0.8125 0.875
vt 1 0.875
vt 1 0.78125
vt 0.8125 0.78125
vt 0.8125 0.875
vt 0.84375 0.875
vt 0.84375 0.78125
vt 0.8125 0.78125
vt 0.8125 0.875
vt 1 0.875
vt 1 0.78125
vt 0.8125 0.78125
vt 0.8125 0.875
vt 0.84375 0.875
vt 0.84375 0.78125
vt 0.8125 0.78125
vt 0.8125 0.875
vt 1 0.875
vt 1 0.859375
vt 0.8125 0.859375
vt 0.8125 0.875
vt 1 0.875
vt 1 0.859375
vt 0.8125 0.859375
vn 0.0 0.0 -1.0
vn 6.123233995736766e-17 1.0 0.0
vn 0.0 0.0 1.0
vn -6.123233995736766e-17 -1.0 0.0
vn -1.0 6.123233995736766e-17 0.0
vn 1.0 -6.123233995736766e-17 0.0
usemtl m_0733762f-288a-b25b-31ae-d546bb315e68
f 66/268/79 69/267/79 67/266/79 64/265/79
f 65/272/80 66/271/80 64/270/80 63/269/80
f 70/276/81 65/275/81 63/274/81 68/273/81
f 69/280/82 70/279/82 68/278/82 67/277/82
f 68/284/83 63/283/83 64/282/83 67/281/83
f 69/288/84 66/287/84 65/286/84 70/285/84
o cube
v 0.1250000000000001 1.875 0.0
v 0.1250000000000001 1.875 -0.625
v 0.8750000000000001 1.875 0.0
v 0.8750000000000001 1.875 -0.625
v 0.12500000000000006 1.125 -0.625
v 0.12500000000000006 1.125 0.0
v 0.875 1.125 -0.625
v 0.875 1.125 0.0
vt 0 0.5
vt 0.1875 0.5
vt 0.1875 0.40625
vt 0 0.40625
vt 0 0.5
vt 0.15625 0.5
vt 0.15625 0.40625
vt 0 0.40625
vt 0.171875 0.3515625
vt 0.359375 0.3515625
vt 0.359375 0.2578125
vt 0.171875 0.2578125
vt 0 0.5
vt 0.15625 0.5
vt 0.15625 0.40625
vt 0 0.40625
vt 0 0.5
vt 0 0.40625
vt 0.15625 0.40625
vt 0.15625 0.5
vt 0 0.40625
vt 0 0.5
vt 0.15625 0.5
vt 0.15625 0.40625
vn 0.0 0.0 -1.0
vn 6.123233995736766e-17 1.0 0.0
vn 0.0 0.0 1.0
vn -6.123233995736766e-17 -1.0 0.0
vn -1.0 6.123233995736766e-17 0.0
vn 1.0 -6.123233995736766e-17 0.0
usemtl m_0733762f-288a-b25b-31ae-d546bb315e68
f 74/292/85 77/291/85 75/290/85 72/289/85
f 73/296/86 74/295/86 72/294/86 71/293/86
f 78/300/87 73/299/87 71/298/87 76/297/87
f 77/304/88 78/303/88 76/302/88 75/301/88
f 76/308/89 71/307/89 72/306/89 75/305/89
f 77/312/90 74/311/90 73/310/90 78/309/90
o cube
v -1.0 2.0 1.0
v -1.0 2.0 0.0
v 1.1102230246251565e-16 2.0 1.0
v 1.1102230246251565e-16 2.0 0.0
v -1.0 -1.0 0.0
v -1.0 -1.0 1.0
v -1.1102230246251565e-16 -1.0 0.0
v -1.1102230246251565e-16 -1.0 1.0
vt 0.25 0.375
vt 1 0.375
vt 1 0.25
vt 0.25 0.25
vt 0 1
vt 0.25 1
vt 0.25 0.875
vt 0 0.875
vt 0.25 1
vt 1 1
vt 1 0.875
vt 0.25 0.875
vt 0 1
vt 0.25 1
vt 0.25 0.875
vt 0 0.875
vt 0 0.625
vt 0 1
vt 0.25 1
vt 0.25 0.625
vt 0.25 0.8828125
vt 1 0.8828125
vt 1 0.875
vt 0.25 0.875
vn 0.0 0.0 -1.0
vn 6.123233995736766e-17 1.0 0.0
vn 0.0 0.0 1.0
vn -6.123233995736766e-17 -1.0 0.0
vn -1.0 6.123233995736766e-17 0.0
vn 1.0 -6.123233995736766e-17 0.0
usemtl m_0733762f-288a-b25b-31ae-d546bb315e68
f 82/316/91 85/315/91 83/314/91 80/313/91
f 81/320/92 82/319/92 80/318/92 79/317/92
f 86/324/93 81/323/93 79/322/93 84/321/93
f 85/328/94 86/327/94 84/326/94 83/325/94
f 84/332/95 79/331/95 80/330/95 83/329/95
f 85/336/96 82/335/96 81/334/96 86/333/96
o cube
v 0.12499999999999994 -0.125 1.0
v 0.12499999999999994 -0.125 0.875
v 0.875 -0.125 1.0
v 0.875 -0.125 0.875
v 0.12499999999999989 -0.875 0.875
v 0.12499999999999989 -0.875 1.0
v 0.8749999999999999 -0.875 0.875
v 0.8749999999999999 -0.875 1.0
vt 0.8125 0.875
vt 1 0.875
vt 1 0.78125
vt 0.8125 0.78125
vt 0.8125 0.875
vt 0.84375 0.875
vt 0.84375 0.78125
vt 0.8125 0.78125
vt 0.8125 0.875
vt 1 0.875
vt 1 0.78125
vt 0.8125 0.78125
vt 0.8125 0.875
vt 0.84375 0.875
vt 0.84375 0.78125
vt 0.8125 0.78125
vt 0.8125 0.875
vt 1 0.875
vt 1 0.859375
vt 0.8125 0.859375
vt 0.8125 0.875
vt 1 0.875
vt 1 0.859375
vt 0.8125 0.859375
vn 0.0 0.0 -1.0
vn 6.123233995736766e-17 1.0 0.0
vn 0.0 0.0 1.0
vn -6.123233995736766e-17 -1.0 0.0
vn -1.0 6.123233995736766e-17 0.0
vn 1.0 -6.123233995736766e-17 0.0
usemtl m_0733762f-288a-b25b-31ae-d546bb315e68
f 90/340/97 93/339/97 91/338/97 88/337/97
f 89/344/98 90/343/98 88/342/98 87/341/98
f 94/348/99 89/347/99 87/346/99 92/345/99
f 93/352/100 94/351/100 92/350/100 91/349/100
f 92/356/101 87/355/101 88/354/101 91/353/101
f 93/360/102 90/359/102 89/358/102 94/357/102
o cube
v 0.0 0.12500000000000006 1.0
v 0.0 0.12500000000000006 0.875
v 1.0 0.12499999999999994 1.0
v 1.0 0.12499999999999994 0.875
v 0.0 5.551115123125783e-17 0.875
v 0.0 5.551115123125783e-17 1.0
v 1.0 0.0 0.875
v 1.0 0.0 1.0
vt 0.5 0.875
vt 0.53125 0.875
vt 0.53125 0.75
vt 0.5 0.75
vt 0.5 0.875
vt 0.53125 0.875
vt 0.53125 0.75
vt 0.5 0.75
vt 0.5 0.875
vt 0.53125 0.875
vt 0.53125 0.75
vt 0.5 0.75
vt 0.5 0.875
vt 0.53125 0.875
vt 0.53125 0.75
vt 0.5 0.75
vt 0.5 0.875
vt 0.53125 0.875
vt 0.53125 0.859375
vt 0.5 0.859375
vt 0.5 0.875
vt 0.53125 0.875
vt 0.53125 0.859375
vt 0.5 0.859375
vn 0.0 0.0 -1.0
vn 6.123233995736766e-17 1.0 0.0
vn 0.0 0.0 1.0
vn -6.123233995736766e-17 -1.0 0.0
vn -1.0 6.123233995736766e-17 0.0
vn 1.0 -6.123233995736766e-17 0.0
usemtl m_0733762f-288a-b25b-31ae-d546bb315e68
f 98/364/103 101/363/103 99/362/103 96/361/103
f 97/368/104 98/367/104 96/366/104 95/365/104
f 102/372/105 97/371/105 95/370/105 100/369/105
f 101/376/106 102/375/106 100/374/106 99/373/106
f 100/380/107 95/379/107 96/378/107 99/377/107
f 101/384/108 98/383/108 97/382/108 102/381/108
o cube
v 5.551115123125783e-17 1.0 1.0
v 5.551115123125783e-17 1.0 0.875
v 1.0 1.0 1.0
v 1.0 1.0 0.875
v 0.0 0.875 0.875
v 0.0 0.875 1.0
v 1.0 0.875 0.875
v 1.0 0.875 1.0
vt 0.71875 0.875
vt 0.75 0.875
vt 0.75 0.75
vt 0.71875 0.75
vt 0.71875 0.875
vt 0.75 0.875
vt 0.75 0.75
vt 0.71875 0.75
vt 0.71875 0.875
vt 0.75 0.875
vt 0.75 0.75
vt 0.71875 0.75
vt 0.71875 0.875
vt 0.75 0.875
vt 0.75 0.75
vt 0.71875 0.75
vt 0.71875 0.875
vt 0.75 0.875
vt 0.75 0.859375
vt 0.71875 0.859375
vt 0.71875 0.875
vt 0.75 0.875
vt 0.75 0.859375
vt 0.71875 0.859375
vn 0.0 0.0 -1.0
vn 6.123233995736766e-17 1.0 0.0
vn 0.0 0.0 1.0
vn -6.123233995736766e-17 -1.0 0.0
vn -1.0 6.123233995736766e-17 0.0
vn 1.0 -6.123233995736766e-17 0.0
usemtl m_0733762f-288a-b25b-31ae-d546bb315e68
f 106/388/109 109/387/109 107/386/109 104/385/109
f 105/392/110 106/391/110 104/390/110 103/389/110
f 110/396/111 105/395/111 103/394/111 108/393/111
f 109/400/112 110/399/112 108/398/112 107/397/112
f 108/404/113 103/403/113 104/402/113 107/401/113
f 109/408/114 106/407/114 105/406/114 110/405/114
o cube
v 0.0 0.875 1.0
v 0.0 0.875 0.875
v 0.125 0.875 1.0
v 0.125 0.875 0.875
v 0.0 0.12500000000000006 0.875
v 0.0 0.12500000000000006 1.0
v 0.125 0.125 0.875
v 0.125 0.125 1.0
vt 0.53125 0.875
vt 0.71875 0.875
vt 0.71875 0.859375
vt 0.53125 0.859375
vt 0.53125 0.875
vt 0.5625 0.875
vt 0.5625 0.859375
vt 0.53125 0.859375
vt 0.53125 0.875
vt 0.71875 0.875
vt 0.71875 0.859375
vt 0.53125 0.859375
vt 0.53125 0.875
vt 0.5625 0.875
vt 0.5625 0.859375
vt 0.53125 0.859375
vt 0.53125 0.875
vt 0.71875 0.875
vt 0.71875 0.859375
vt 0.53125 0.859375
vt 0.53125 0.765625
vt 0.71875 0.765625
vt 0.71875 0.75
vt 0.53125 0.75
vn 0.0 0.0 -1.0
vn 6.123233995736766e-17 1.0 0.0
vn 0.0 0.0 1.0
vn -6.123233995736766e-17 -1.0 0.0
vn -1.0 6.123233995736766e-17 0.0
vn 1.0 -6.123233995736766e-17 0.0
usemtl m_0733762f-288a-b25b-31ae-d546bb315e68
f 114/412/115 117/411/115 115/410/115 112/409/115
f 113/416/116 114/415/116 112/414/116 111/413/116
f 118/420/117 113/419/117 111/418/117 116/417/117
f 117/424/118 118/423/118 116/422/118 115/421/118
f 116/428/119 111/427/119 112/426/119 115/425/119
f 117/432/120 114/431/120 113/430/120 118/429/120
o cube
v 0.875 0.875 1.0
v 0.875 0.875 0.875
v 1.0 0.875 1.0
v 1.0 0.875 0.875
v 0.875 0.125 0.875
v 0.875 0.125 1.0
v 1.0 0.12499999999999994 0.875
v 1.0 0.12499999999999994 1.0
vt 0.53125 0.765625
vt 0.71875 0.765625
vt 0.71875 0.75
vt 0.53125 0.75
vt 0.53125 0.765625
vt 0.5625 0.765625
vt 0.5625 0.75
vt 0.53125 0.75
vt 0.53125 0.765625
vt 0.71875 0.765625
vt 0.71875 0.75
vt 0.53125 0.75
vt 0.53125 0.765625
vt 0.5625 0.765625
vt 0.5625 0.75
vt 0.53125 0.75
vt 0.53125 0.875
vt 0.71875 0.875
vt 0.71875 0.859375
vt 0.53125 0.859375
vt 0.53125 0.765625
vt 0.71875 0.765625
vt 0.71875 0.75
vt 0.53125 0.75
vn 0.0 0.0 -1.0
vn 6.123233995736766e-17 1.0 0.0
vn 0.0 0.0 1.0
vn -6.123233995736766e-17 -1.0 0.0
vn -1.0 6.123233995736766e-17 0.0
vn 1.0 -6.123233995736766e-17 0.0
usemtl m_0733762f-288a-b25b-31ae-d546bb315e68
f 122/436/121 125/435/121 123/434/121 120/433/121
f 121/440/122 122/439/122 120/438/122 119/437/122
f 126/444/123 121/443/123 119/442/123 124/441/123
f 125/448/124 126/447/124 124/446/124 123/445/124
f 124/452/125 119/451/125 120/450/125 123/449/125
f 125/456/126 122/455/126 121/454/126 126/453/126
o cube
v 5.551115123125783e-17 1.0 0.875
v 5.551115123125783e-17 1.0 0.0
v 1.0 1.0 0.875
v 1.0 1.0 0.0
v 0.0 5.551115123125783e-17 0.0
v 0.0 5.551115123125783e-17 0.875
v 1.0 0.0 0.0
v 1.0 0.0 0.875
vt 0.5 1
vt 0.75 1
vt 0.75 0.875
vt 0.5 0.875
vt 0.515625 1
vt 0.734375 1
vt 0.734375 0.875
vt 0.515625 0.875
vt 0.5 0.875
vt 0.75 0.875
vt 0.75 0.75
vt 0.5 0.75
vt 0.515625 1
vt 0.734375 1
vt 0.734375 0.875
vt 0.515625 0.875
vt 0.5 1
vt 0.75 1
vt 0.75 0.890625
vt 0.5 0.890625
vt 0.5 1
vt 0.75 1
vt 0.75 0.890625
vt 0.5 0.890625
vn 0.0 0.0 -1.0
vn 6.123233995736766e-17 1.0 0.0
vn 0.0 0.0 1.0
vn -6.123233995736766e-17 -1.0 0.0
vn -1.0 6.123233995736766e-17 0.0
vn 1.0 -6.123233995736766e-17 0.0
usemtl m_0733762f-288a-b25b-31ae-d546bb315e68
f 130/460/127 133/459/127 131/458/127 128/457/127
f 129/464/128 130/463/128 128/462/128 127/461/128
f 134/468/129 129/467/129 127/466/129 132/465/129
f 133/472/130 134/471/130 132/470/130 131/469/130
f 132/476/131 127/475/131 128/474/131 131/473/131
f 133/480/132 130/479/132 129/478/132 134/477/132
o cube
v 1.1102230246251565e-16 2.0 0.875
v 1.1102230246251565e-16 2.0 0.0
v 1.0 2.0 0.875
v 1.0 2.0 0.0
v 5.551115123125783e-17 1.0 0.0
v 5.551115123125783e-17 1.0 0.875
v 1.0 1.0 0.0
v 1.0 1.0 0.875
vt 0 0.625
vt 0.25 0.625
vt 0.25 0.5
vt 0 0.5
vt 0.015625 0.625
vt 0.234375 0.625
vt 0.234375 0.5
vt 0.015625 0.5
vt 0 0.625
vt 0.25 0.625
vt 0.25 0.5
vt 0 0.5
vt 0 0.625
vt 0.21875 0.625
vt 0.21875 0.5
vt 0 0.5
vt 0 0.625
vt 0.25 0.625
vt 0.25 0.515625
vt 0 0.515625
vt 0 0.625
vt 0.25 0.625
vt 0.25 0.515625
vt 0 0.515625
vn 0.0 0.0 -1.0
vn 6.123233995736766e-17 1.0 0.0
vn 0.0 0.0 1.0
vn -6.123233995736766e-17 -1.0 0.0
vn -1.0 6.123233995736766e-17 0.0
vn 1.0 -6.123233995736766e-17 0.0
usemtl m_0733762f-288a-b25b-31ae-d546bb315e68
f 138/484/133 141/483/133 139/482/133 136/481/133
f 137/488/134 138/487/134 136/486/134 135/485/134
f 142/492/135 137/491/135 135/490/135 140/489/135
f 141/496/136 142/495/136 140/494/136 139/493/136
f 140/500/137 135/499/137 136/498/137 139/497/137
f 141/504/138 138/503/138 137/502/138 142/501/138
o cube
v 2.0 2.0 -1.1102230246251565e-16
v 2.0 2.0 0.9999999999999999
v 1.0 2.0 0.0
v 1.0000000000000002 2.0 1.0
v 2.0 -1.0 0.9999999999999999
v 2.0 -1.0 -1.1102230246251565e-16
v 1.0 -1.0 1.0
v 0.9999999999999999 -1.0 0.0
vt 0.25 1
vt 1 1
vt 1 0.875
vt 0.25 0.875
vt 0 1
vt 0.25 1
vt 0.25 0.875
vt 0 0.875
vt 0.25 0.375
vt 1 0.375
vt 1 0.25
vt 0.25 0.25
vt 0 1
vt 0.25 1
vt 0.25 0.875
vt 0 0.875
vt 0 0.625
vt 0 1
vt 0.25 1
vt 0.25 0.625
vt 0.25 0.8828125
vt 1 0.8828125
vt 1 0.875
vt 0.25 0.875
vn 1.2246467991473532e-16 -7.498798913309288e-33 1.0
vn 6.123233995736766e-17 1.0 0.0
vn -1.2246467991473532e-16 7.498798913309288e-33 -1.0
vn -6.123233995736766e-17 -1.0 0.0
vn 1.0 -6.123233995736766e-17 -1.2246467991473532e-16
vn -1.0 6.123233995736766e-17 1.2246467991473532e-16
usemtl m_0733762f-288a-b25b-31ae-d546bb315e68
f 146/508/139 149/507/139 147/506/139 144/505/139
f 145/512/140 146/511/140 144/510/140 143/509/140
f 150/516/141 145/515/141 143/514/141 148/513/141
f 149/520/142 150/519/142 148/518/142 147/517/142
f 148/524/143 143/523/143 144/522/143 147/521/143
f 149/528/144 146/527/144 145/526/144 150/525/144
o cube
v 0.12499999999999989 -0.9375 -0.625
v 0.12499999999999989 -0.9375 5.551115123125783e-17
v 0.8749999999999999 -0.9375 -0.625
v 0.8749999999999999 -0.9375 5.551115123125783e-17
v 0.12499999999999994 -0.1874999999999999 0.0
v 0.12499999999999994 -0.1875000000000001 -0.625
v 0.875 -0.1874999999999999 0.0
v 0.875 -0.1875000000000001 -0.625
vt 0 0.5
vt 0.1875 0.5
vt 0.1875 0.40625
vt 0 0.40625
vt 0 0.5
vt 0.15625 0.5
vt 0.15625 0.40625
vt 0 0.40625
vt 0.1875 0.5
vt 0 0.5
vt 0 0.40625
vt 0.1875 0.40625
vt 0 0.5
vt 0.15625 0.5
vt 0.15625 0.40625
vt 0 0.40625
vt 0 0.5
vt 0 0.40625
vt 0.15625 0.40625
vt 0.15625 0.5
vt 0 0.40625
vt 0 0.5
vt 0.15625 0.5
vt 0.15625 0.40625
vn 7.498798913309288e-33 1.2246467991473532e-16 1.0
vn -6.123233995736766e-17 -1.0 1.2246467991473532e-16
vn -7.498798913309288e-33 -1.2246467991473532e-16 -1.0
vn 6.123233995736766e-17 1.0 -1.2246467991473532e-16
vn -1.0 6.123233995736766e-17 0.0
vn 1.0 -6.123233995736766e-17 0.0
usemtl m_0733762f-288a-b25b-31ae-d546bb315e68
f 154/532/145 157/531/145 155/530/145 152/529/145
f 153/536/146 154/535/146 152/534/146 151/533/146
f 158/540/147 153/539/147 151/538/147 156/537/147
f 157/544/148 158/543/148 156/542/148 155/541/148
f 156/548/149 151/547/149 152/546/149 155/545/149
f 157/552/150 154/551/150 153/550/150 158/549/150